<?xml version="1.0" standalone="no"?>
<!DOCTYPE svg PUBLIC "-//W3C//DTD SVG 20010904//EN"
 "http://www.w3.org/TR/2001/REC-SVG-20010904/DTD/svg10.dtd">
<svg version="1.0" xmlns="http://www.w3.org/2000/svg"
 width="300.000000pt" height="300.000000pt" viewBox="0 0 300.000000 300.000000"
 preserveAspectRatio="xMidYMid meet">
<metadata>
Created by potrace 1.16, written by Peter Selinger 2001-2019
</metadata>
<g transform="translate(0.000000,300.000000) scale(0.100000,-0.100000)"
fill="#000000" stroke="none">
<path d="M1390 2733 c-295 -32 -554 -155 -760 -363 -235 -237 -360 -542 -360
-876 l0 -101 108 32 107 33 6 109 c21 353 219 661 539 836 312 171 731 148
1035 -56 75 -50 185 -145 185 -159 0 -6 -28 16 -63 49 -322 310 -835 359
-1222 119 -278 -174 -469 -510 -464 -818 l2 -83 7 110 c25 353 207 645 510
813 263 146 616 159 897 32 335 -152 564 -494 574 -858 2 -46 6 -85 9 -87 9
-5 2 138 -11 215 -23 141 -99 316 -190 436 -28 38 -44 62 -35 54 31 -25 103
-133 145 -216 55 -111 89 -233 102 -372 6 -64 12 -118 14 -120 1 -1 40 -13 86
-27 46 -14 92 -28 102 -31 15 -5 17 4 17 103 0 387 -179 746 -489 979 -247
185 -565 278 -851 247z"/>
<path d="M1330 1474 c-369 -24 -677 -81 -983 -181 -76 -24 -137 -46 -135 -48
2 -2 67 16 143 41 124 40 224 66 390 103 407 90 973 100 1395 25 177 -31 327
-66 470 -111 129 -39 383 -134 377 -140 -2 -2 -55 16 -118 41 -443 170 -867
248 -1359 248 -501 1 -914 -77 -1387 -259 l-122 -47 3 -46 c3 -41 44 -156 52
-147 3 2 -7 30 -21 62 -14 31 -24 59 -22 61 2 2 17 -26 32 -63 16 -38 29 -69
31 -71 1 -2 12 2 25 8 27 15 252 101 254 97 1 -1 12 -28 25 -60 37 -93 154
-261 249 -357 180 -181 396 -297 649 -347 117 -23 327 -23 447 1 388 76 720
334 891 693 40 85 19 84 193 17 63 -25 115 -43 116 -42 1 2 14 33 30 71 15 37
30 65 32 63 3 -2 -5 -26 -16 -52 -12 -26 -20 -49 -17 -51 10 -10 43 98 42 141
l-1 49 -70 29 c-313 128 -651 213 -1008 253 -136 15 -481 26 -587 19z m585
-258 c176 -21 507 -84 522 -100 2 -2 -14 -39 -35 -82 -129 -256 -366 -446
-652 -522 -82 -21 -116 -25 -250 -25 -134 0 -168 4 -250 25 -283 75 -516 261
-650 518 -22 43 -37 81 -33 83 14 9 275 64 378 81 286 47 688 56 970 22z"/>
<path d="M1195 1214 c-173 -16 -311 -38 -480 -75 -71 -16 -133 -29 -137 -29
-13 0 50 -119 105 -198 66 -96 194 -215 296 -276 45 -26 84 -46 87 -43 3 2
-19 17 -48 32 -162 84 -315 241 -402 414 -20 39 -24 56 -16 61 7 4 67 19 134
33 383 82 721 104 1083 71 96 -9 177 -13 180 -10 4 3 -2 6 -13 6 -10 0 -91 7
-179 15 -190 18 -417 17 -610 -1z"/>
<path d="M2075 1175 c39 -7 97 -19 130 -25 94 -17 189 -42 198 -50 10 -9 -31
-94 -86 -175 -139 -205 -373 -356 -630 -406 -80 -16 -294 -16 -375 0 -35 7
-96 23 -135 36 -77 26 -104 28 -35 2 85 -31 151 -46 254 -58 405 -46 797 162
990 525 l44 83 -62 17 c-90 24 -244 53 -308 60 -51 5 -50 4 15 -9z"/>
</g>
</svg>
