<?xml version="1.0" standalone="no"?>
<!DOCTYPE svg PUBLIC "-//W3C//DTD SVG 20010904//EN"
 "http://www.w3.org/TR/2001/REC-SVG-20010904/DTD/svg10.dtd">
<svg version="1.0" xmlns="http://www.w3.org/2000/svg"
 width="225.000000pt" height="225.000000pt" viewBox="0 0 225.000000 225.000000"
 preserveAspectRatio="xMidYMid meet">

<g transform="translate(0.000000,225.000000) scale(0.100000,-0.100000)"
fill="#000000" stroke="none">
<path d="M975 2239 c-365 -46 -713 -302 -870 -642 -192 -416 -111 -908 205
-1241 381 -401 973 -469 1440 -165 84 55 254 225 309 309 236 363 252 823 39
1185 -234 398 -666 611 -1123 554z m340 -158 c321 -67 595 -294 714 -592 54
-136 65 -198 65 -369 -1 -171 -15 -242 -74 -381 -98 -232 -322 -443 -557 -529
-282 -102 -593 -71 -844 82 -112 68 -259 215 -327 327 -188 308 -188 703 0
1012 69 114 224 267 336 332 209 123 459 165 687 118z"/>
<path d="M1071 1754 c-20 -25 -21 -39 -21 -290 l0 -264 -264 0 c-251 0 -265
-1 -290 -21 -36 -28 -36 -80 0 -108 25 -20 39 -21 290 -21 l264 0 0 -264 c0
-251 1 -265 21 -290 28 -36 80 -36 108 0 20 25 21 39 21 290 l0 264 264 0
c251 0 265 1 290 21 36 28 36 80 0 108 -25 20 -39 21 -290 21 l-264 0 0 264
c0 251 -1 265 -21 290 -15 19 -30 26 -54 26 -24 0 -39 -7 -54 -26z"/>
</g>
</svg>
